<svg width="4906" height="1718" viewBox="0 0 4906 1718" fill="none" xmlns="http://www.w3.org/2000/svg">
<g clip-path="url(#clip0_6_10)">
<path d="M161.926 955.75C161.926 884.917 176.092 823.25 204.426 770.75C232.759 717.417 271.926 676.583 321.926 648.25C371.926 619.083 429.009 604.5 493.176 604.5C577.342 604.5 646.509 625.333 700.676 667C755.676 708.667 791.092 765.333 806.926 837H713.176C701.509 787.833 676.092 749.5 636.926 722C598.592 693.667 550.676 679.5 493.176 679.5C447.342 679.5 406.092 689.917 369.426 710.75C332.759 731.583 303.592 762.833 281.926 804.5C261.092 845.333 250.676 895.75 250.676 955.75C250.676 1015.75 261.092 1066.58 281.926 1108.25C303.592 1149.92 332.759 1181.17 369.426 1202C406.092 1222.83 447.342 1233.25 493.176 1233.25C550.676 1233.25 598.592 1219.5 636.926 1192C676.092 1163.67 701.509 1124.5 713.176 1074.5H806.926C791.092 1144.5 755.676 1200.75 700.676 1243.25C645.676 1285.75 576.509 1307 493.176 1307C429.009 1307 371.926 1292.83 321.926 1264.5C271.926 1235.33 232.759 1194.5 204.426 1142C176.092 1088.67 161.926 1026.58 161.926 955.75ZM1684.78 614.5V1297H1597.28V1177C1577.28 1219.5 1546.44 1252 1504.78 1274.5C1463.11 1297 1416.44 1308.25 1364.78 1308.25C1283.11 1308.25 1216.44 1283.25 1164.78 1233.25C1113.11 1182.42 1087.28 1109.08 1087.28 1013.25V614.5H1173.53V1003.25C1173.53 1077.42 1191.86 1134.08 1228.53 1173.25C1266.03 1212.42 1316.86 1232 1381.03 1232C1446.86 1232 1499.36 1211.17 1538.53 1169.5C1577.69 1127.83 1597.28 1066.58 1597.28 985.75V614.5H1684.78ZM2097.04 735.75C2116.21 693.25 2145.38 660.333 2184.54 637C2224.54 613.667 2273.29 602 2330.79 602V693.25H2307.04C2243.71 693.25 2192.88 710.333 2154.54 744.5C2116.21 778.667 2097.04 835.75 2097.04 915.75V1297H2009.54V614.5H2097.04V735.75ZM2547.42 954.5C2547.42 884.5 2561.17 823.25 2588.67 770.75C2617.01 717.417 2655.76 676.583 2704.92 648.25C2754.92 619.083 2811.17 604.5 2873.67 604.5C2938.67 604.5 2994.51 619.5 3041.17 649.5C3088.67 679.5 3122.84 717.833 3143.67 764.5V614.5H3231.17V1297H3143.67V1145.75C3122.01 1192.42 3087.42 1231.17 3039.92 1262C2993.26 1292 2937.42 1307 2872.42 1307C2810.76 1307 2754.92 1292.42 2704.92 1263.25C2655.76 1234.08 2617.01 1192.83 2588.67 1139.5C2561.17 1086.17 2547.42 1024.5 2547.42 954.5ZM3143.67 955.75C3143.67 900.75 3132.42 852.417 3109.92 810.75C3087.42 769.083 3056.59 737 3017.42 714.5C2979.09 692 2936.59 680.75 2889.92 680.75C2841.59 680.75 2798.26 691.583 2759.92 713.25C2721.59 734.917 2691.17 766.583 2668.67 808.25C2647.01 849.083 2636.17 897.833 2636.17 954.5C2636.17 1010.33 2647.01 1059.5 2668.67 1102C2691.17 1143.67 2721.59 1175.75 2759.92 1198.25C2798.26 1219.92 2841.59 1230.75 2889.92 1230.75C2936.59 1230.75 2979.09 1219.5 3017.42 1197C3056.59 1174.5 3087.42 1142.42 3109.92 1100.75C3132.42 1059.08 3143.67 1010.75 3143.67 955.75ZM3669.68 688.25V1112C3669.68 1153.67 3677.6 1182.42 3693.43 1198.25C3709.26 1214.08 3737.18 1222 3777.18 1222H3857.18V1297H3763.43C3701.76 1297 3655.93 1282.83 3625.93 1254.5C3595.93 1225.33 3580.93 1177.83 3580.93 1112V688.25H3485.93V614.5H3580.93V443.25H3669.68V614.5H3857.18V688.25H3669.68ZM4743.99 920.75C4743.99 950.75 4743.15 973.667 4741.49 989.5H4175.24C4177.74 1041.17 4190.24 1085.33 4212.74 1122C4235.24 1158.67 4264.82 1186.58 4301.49 1205.75C4338.15 1224.08 4378.15 1233.25 4421.49 1233.25C4478.15 1233.25 4525.65 1219.5 4563.99 1192C4603.15 1164.5 4628.99 1127.42 4641.49 1080.75H4733.99C4717.32 1147.42 4681.49 1202 4626.49 1244.5C4572.32 1286.17 4503.99 1307 4421.49 1307C4357.32 1307 4299.82 1292.83 4248.99 1264.5C4198.15 1235.33 4158.15 1194.5 4128.99 1142C4100.65 1088.67 4086.49 1026.58 4086.49 955.75C4086.49 884.917 4100.65 822.833 4128.99 769.5C4157.32 716.167 4196.9 675.333 4247.74 647C4298.57 618.667 4356.49 604.5 4421.49 604.5C4486.49 604.5 4543.15 618.667 4591.49 647C4640.65 675.333 4678.15 713.667 4703.99 762C4730.65 809.5 4743.99 862.417 4743.99 920.75ZM4655.24 918.25C4656.07 867.417 4645.65 824.083 4623.99 788.25C4603.15 752.417 4574.4 725.333 4537.74 707C4501.07 688.667 4461.07 679.5 4417.74 679.5C4352.74 679.5 4297.32 700.333 4251.49 742C4205.65 783.667 4180.24 842.417 4175.24 918.25H4655.24Z" fill="#D2C4FB"/>
</g>
<defs>
<clipPath id="clip0_6_10">
<rect width="4906" height="1718" fill="white"/>
</clipPath>
</defs>
</svg>
